<?xml version="1.0" standalone="no"?>
<!DOCTYPE svg PUBLIC "-//W3C//DTD SVG 20010904//EN"
 "http://www.w3.org/TR/2001/REC-SVG-20010904/DTD/svg10.dtd">
<svg version="1.0" xmlns="http://www.w3.org/2000/svg"
 width="1024.000000pt" height="1024.000000pt" viewBox="0 0 1024.000000 1024.000000"
 preserveAspectRatio="xMidYMid meet">
<metadata>
Created by potrace 1.14, written by Peter Selinger 2001-2017
</metadata>
<g transform="translate(0.000000,1024.000000) scale(0.100000,-0.100000)"
fill="#000000" stroke="none">
<path d="M1435 7582 l-30 -3 2 -1197 c1 -658 2 -1207 2 -1219 l1 -23 758 0
757 0 0 262 0 263 -438 0 -437 0 0 225 0 225 381 0 c332 -1 382 1 388 15 8 18
7 502 -1 515 -4 7 -150 10 -387 10 l-381 -1 0 198 0 198 437 2 438 3 0 258 c0
142 -2 262 -5 265 -5 7 -1422 10 -1485 4z"/>
<path d="M4424 7582 c-15 -2 -31 -25 -59 -85 -21 -45 -75 -161 -120 -257 -45
-96 -94 -200 -108 -230 -13 -30 -60 -129 -102 -220 -43 -91 -90 -192 -105
-225 -15 -33 -53 -113 -84 -179 -31 -65 -56 -119 -56 -121 0 -2 -24 -54 -54
-116 -29 -63 -67 -143 -83 -179 -51 -109 -103 -219 -164 -348 -33 -68 -59
-125 -59 -128 0 -2 -25 -56 -56 -121 -79 -166 -104 -221 -104 -227 0 -3 144
-6 320 -6 180 0 320 4 320 9 0 7 47 112 122 269 l20 42 500 -2 499 -3 71 -150
c38 -82 73 -153 77 -158 4 -4 150 -6 324 -5 l316 3 -85 180 c-47 99 -96 203
-109 230 -13 28 -53 112 -89 189 -36 76 -66 139 -66 141 0 2 -29 63 -63 136
-35 74 -79 166 -97 204 -18 39 -50 106 -70 150 -21 44 -59 125 -85 180 -26 55
-60 127 -75 160 -15 33 -53 114 -85 180 -31 66 -86 183 -122 260 -36 77 -94
200 -129 274 -35 73 -64 138 -64 142 0 5 -15 9 -32 10 -121 3 -226 4 -244 1z
m184 -1167 c28 -60 82 -179 120 -262 l70 -153 -248 0 -249 0 73 158 c139 299
176 375 180 371 2 -2 26 -53 54 -114z"/>
<path d="M6255 7582 l-40 -3 0 -1219 -1 -1220 323 0 323 0 0 628 c0 345 4 622
8 617 4 -6 75 -71 157 -145 83 -74 155 -139 161 -145 6 -5 46 -41 89 -80 43
-38 88 -79 99 -90 117 -109 126 -116 139 -103 12 11 103 94 213 194 68 62 137
125 240 220 60 56 124 114 141 129 l33 27 0 -489 c-1 -268 -1 -550 0 -625 l0
-138 323 0 322 0 -1 1213 c-1 666 -2 1217 -3 1222 -2 16 -275 10 -299 -6 -10
-8 -63 -54 -116 -103 -53 -49 -106 -97 -117 -107 -11 -9 -59 -53 -106 -96 -47
-43 -95 -87 -107 -98 -122 -111 -214 -194 -236 -215 -14 -14 -57 -53 -96 -87
-38 -34 -98 -89 -134 -122 -36 -33 -68 -60 -72 -58 -6 2 -127 110 -197 176
-20 18 -69 63 -110 100 -41 36 -102 91 -135 122 -34 31 -79 71 -101 90 -22 19
-49 44 -60 55 -11 12 -69 66 -130 120 -104 93 -145 130 -224 203 -18 17 -43
31 -55 31 -11 1 -59 2 -106 3 -47 1 -103 1 -125 -1z"/>
<path d="M1321 4570 c-5 -3 -8 -188 -8 -412 l0 -408 256 0 257 0 -1 88 -1 87
-134 2 c-74 0 -141 1 -147 2 -9 1 -13 23 -13 76 l0 74 93 0 c50 -1 109 0 130
0 l37 1 0 90 0 90 -130 0 -131 0 3 67 3 68 143 -1 c78 0 143 3 143 6 1 3 2 42
3 88 2 76 0 82 -19 83 -75 4 -478 3 -484 -1z"/>
<path d="M5460 4570 c-4 -3 -21 -34 -38 -70 -16 -36 -51 -109 -76 -162 -104
-221 -136 -289 -136 -292 0 -4 -117 -251 -131 -278 -9 -17 -1 -18 99 -18 l109
0 23 50 c13 27 30 52 39 54 9 3 85 4 169 4 l153 -1 27 -53 26 -54 108 0 107 0
-34 75 c-90 193 -105 226 -148 315 -114 241 -160 338 -179 382 -11 27 -23 48
-27 49 -22 4 -84 3 -91 -1z m89 -442 l39 -83 -39 -3 c-21 -2 -58 -2 -82 0
l-43 3 38 83 c21 45 40 82 43 82 3 0 22 -37 44 -82z"/>
<path d="M6059 4555 c-1 -26 -1 -788 0 -797 1 -5 39 -8 86 -8 l85 0 1 58 c1
76 1 733 0 752 -1 12 -17 15 -86 15 -78 0 -85 -2 -86 -20z"/>
<path d="M6412 4566 c-3 -6 -5 -190 -5 -410 l0 -401 88 0 89 0 -1 68 c0 37 1
67 3 67 2 0 34 -32 72 -70 l69 -71 108 3 108 3 -126 126 -127 126 125 119 c69
66 125 121 125 125 0 3 -49 5 -110 5 l-109 -1 -69 -68 -69 -69 1 217 c1 119
-2 222 -6 227 -8 14 -158 16 -166 4z"/>
<path d="M8363 4481 c-8 -20 -23 -57 -34 -83 l-19 -48 53 0 52 0 53 76 c29 42
51 79 48 81 -3 3 -35 6 -71 7 l-66 2 -16 -35z"/>
<path d="M2052 4485 c-30 -22 -43 -73 -25 -107 26 -53 83 -63 131 -23 26 21
30 31 27 63 -6 67 -79 104 -133 67z"/>
<path d="M2296 4475 c-55 -51 -17 -145 59 -145 39 0 85 42 85 77 0 81 -86 122
-144 68z"/>
<path d="M3758 4477 c-60 -50 -24 -147 56 -147 47 0 91 50 82 94 -14 71 -84
98 -138 53z"/>
<path d="M4006 4475 c-54 -50 -16 -145 58 -145 76 1 113 90 60 144 -35 34 -82
35 -118 1z"/>
<path d="M2670 4333 c0 -51 -4 -73 -12 -74 -7 -1 -26 -2 -43 -3 l-30 -1 -1
-67 c-1 -37 1 -67 5 -66 3 0 23 0 44 -1 l37 -1 0 -185 0 -186 88 3 87 3 0 177
c0 97 2 179 5 182 3 3 22 6 43 8 l37 2 0 67 0 66 -40 -2 c-24 -1 -41 2 -41 9
-1 6 -2 36 -3 66 -1 30 -5 60 -9 67 -5 8 -34 12 -87 11 l-80 -2 0 -73z"/>
<path d="M7734 4396 c-2 -6 -5 -40 -6 -76 l-3 -64 -40 -1 -40 0 0 -65 c0 -70
-4 -66 63 -69 22 -1 22 -1 22 -186 l0 -186 88 3 87 3 0 183 c0 198 -4 186 58
182 l27 -2 0 70 0 69 -40 -2 c-24 -1 -41 2 -41 9 -1 6 -3 36 -4 66 -1 30 -3
60 -4 66 -1 16 -161 15 -167 0z"/>
<path d="M2173 4259 c-205 -39 -282 -291 -133 -439 160 -161 432 -59 445 168
10 170 -143 303 -312 271z m115 -190 c73 -71 18 -170 -89 -160 -32 2 -69 51
-69 90 0 91 94 132 158 70z"/>
<path d="M3877 4258 c-150 -32 -241 -192 -192 -338 73 -218 387 -240 485 -34
93 199 -80 419 -293 372z m122 -189 c41 -41 42 -86 3 -131 -83 -92 -220 33
-140 129 34 42 97 43 137 2z"/>
<path d="M4430 4254 c-108 -32 -155 -139 -101 -228 28 -44 67 -66 145 -81 65
-12 89 -33 70 -62 -16 -26 -59 -28 -83 -4 -17 17 -34 21 -92 21 -78 0 -79 -1
-42 -73 36 -71 158 -105 253 -71 147 53 156 220 15 285 -22 10 -54 19 -71 19
-18 0 -42 9 -55 19 -20 16 -22 23 -13 38 15 25 67 29 89 6 26 -26 141 -29 148
-3 9 33 -36 91 -95 121 -49 25 -113 30 -168 13z"/>
<path d="M7191 4248 c-186 -70 -227 -321 -74 -447 77 -64 188 -77 284 -33 83
38 138 122 144 219 11 189 -176 327 -354 261z m132 -159 c112 -58 36 -227 -78
-173 -64 30 -77 104 -26 155 31 31 67 37 104 18z"/>
<path d="M8313 4259 c-53 -10 -90 -29 -130 -68 -165 -157 -61 -439 164 -447
157 -6 273 98 278 250 6 169 -144 297 -312 265z m98 -174 c31 -17 49 -49 49
-90 0 -33 -49 -85 -80 -87 -46 -2 -57 2 -84 28 -38 38 -36 95 3 135 33 33 67
37 112 14z"/>
<path d="M3016 4238 c3 -9 37 -84 75 -165 39 -81 89 -187 111 -235 l42 -88 63
0 c57 0 64 2 72 23 5 12 54 119 109 238 56 118 102 221 104 229 2 11 -16 14
-89 15 l-92 1 -53 -113 -52 -112 -56 112 -55 112 -93 0 c-84 1 -92 -1 -86 -17z"/>
<path d="M3009 3488 c0 -2 -1 -191 -2 -421 l-2 -417 88 0 c76 0 87 2 88 18 0
9 1 64 0 122 0 58 5 121 10 141 20 78 135 85 169 11 6 -15 11 -80 11 -159 l0
-133 84 0 84 0 -3 148 c-3 171 -14 216 -69 278 -63 72 -161 103 -253 81 l-32
-8 0 158 c0 87 -1 164 -1 171 -1 8 -25 12 -86 12 -47 0 -85 -1 -86 -2z"/>
<path d="M1310 3470 c-5 -3 -8 -188 -8 -413 l0 -407 109 0 109 0 0 211 0 211
106 -96 c58 -53 109 -96 112 -96 4 1 52 43 107 95 l100 93 3 -209 2 -209 110
0 110 0 0 410 c0 321 -3 410 -12 411 -68 6 -92 -1 -127 -34 -20 -18 -58 -54
-85 -78 -27 -24 -78 -71 -114 -104 -99 -92 -92 -89 -139 -46 -23 20 -61 55
-85 76 -24 21 -80 72 -126 114 -73 67 -87 75 -123 75 -23 1 -45 -1 -49 -4z"/>
<path d="M4339 3460 c-3 -53 -4 -787 -1 -797 3 -9 30 -13 88 -13 l84 0 1 33
c1 39 0 756 0 777 -1 22 -171 22 -172 0z"/>
<path d="M2445 3332 c-19 -40 -35 -75 -35 -77 0 -3 24 -5 53 -5 l52 1 49 67
c27 37 48 71 48 76 -1 4 -31 9 -67 10 l-66 1 -34 -73z"/>
<path d="M2676 3390 c-2 -8 -18 -43 -35 -77 l-30 -63 53 0 54 0 56 75 c31 41
51 75 44 76 -113 5 -137 3 -142 -11z"/>
<path d="M3852 3151 c-145 -49 -216 -200 -162 -343 38 -102 124 -161 235 -162
69 -1 165 25 165 44 0 5 -23 32 -51 59 -42 42 -54 49 -70 41 -24 -13 -78 -4
-108 18 -53 39 -42 42 148 42 137 0 181 3 182 13 7 64 -12 145 -45 192 -64 92
-187 132 -294 96z m146 -151 c17 -11 32 -26 32 -34 0 -12 -19 -14 -100 -13
-55 0 -100 4 -100 8 0 4 14 19 31 33 38 32 90 34 137 6z"/>
<path d="M2339 3151 c-6 -34 -3 -277 4 -315 11 -65 56 -129 113 -162 50 -29
66 -31 267 -26 l107 2 0 254 0 253 -87 -1 -88 -1 -1 -140 c0 -77 -4 -150 -8
-163 -6 -18 -52 -52 -71 -52 -5 0 -64 29 -67 33 0 1 -4 74 -7 162 l-6 160 -77
1 c-43 1 -78 -1 -79 -5z"/>
<path d="M4676 3150 c-2 -3 -2 -76 -1 -162 2 -148 4 -160 29 -212 45 -93 130
-142 231 -133 60 5 61 5 63 -21 3 -42 -17 -89 -46 -108 -19 -13 -48 -18 -104
-18 -43 0 -78 -3 -79 -6 -4 -25 -1 -161 3 -165 7 -7 130 -7 175 -1 111 16 205
119 220 242 6 44 9 555 4 584 -2 10 -171 5 -172 -5 0 -5 -2 -75 -2 -153 -2
-138 -3 -145 -26 -163 -31 -26 -83 -25 -107 2 -19 21 -21 38 -23 279 l-1 46
-81 -1 c-44 0 -82 -2 -83 -5z"/>
</g>
</svg>
